# xmcd CD database file
#
# Track frame offsets:
#	150
#	20402
#	42528
#	64743
#	84975
#	100722
#
# Disc length: 1851 seconds
#
# Revision: 0
# Processed by: cddbd v1.5.2PL0 Copyright (c) Steve Scherf et al.
# Submitted via: CDex 1.70beta2
#
DISCID=42073906
DTITLE=Moscow Composers Orchestra - Kharms-10 Incidents
DYEAR=2005
DGENRE=Jazz
TTITLE0=Volodya and the Hunter
TTITLE1=The Clock and the Artist
TTITLE2=A Man left his House
TTITLE3=Mashkin killed Koshkin
TTITLE4=Happy old Man
TTITLE5=Prichasnyi Stich
EXTD=YEAR: 2005
EXTT0=
EXTT1=
EXTT2=
EXTT3=
EXTT4=
EXTT5=
PLAYORDER=
